<?xml version="1.0" encoding="UTF-8" standalone="no"?>
<svg width="301px" height="83px" viewBox="0 0 301 83" version="1.1" xmlns="http://www.w3.org/2000/svg" xmlns:xlink="http://www.w3.org/1999/xlink" xmlns:sketch="http://www.bohemiancoding.com/sketch/ns">
    <!-- Generator: Sketch 3.3.2 (12043) - http://www.bohemiancoding.com/sketch -->
    <title>wu logo</title>
    <desc>Created with Sketch.</desc>
    <defs></defs>
    <g id="bank-transfer" stroke="none" stroke-width="1" fill="none" fill-rule="evenodd" sketch:type="MSPage">
        <g id="welcome-page-01" sketch:type="MSArtboardGroup" transform="translate(-36.000000, -114.000000)">
            <g id="wu-logo" sketch:type="MSLayerGroup" transform="translate(36.675514, 114.546389)">
                <path d="M300,51.6133782 C300,54.1097901 297.93088,56.1333939 295.378544,56.1333939 L4.62127265,56.1333939 C2.06893643,56.1333939 0,54.1097901 0,51.6133782 L0,4.52001574 C0,2.02360387 2.06893643,0 4.62127265,0 L295.378544,0 C297.93088,0 300,2.02360387 300,4.52001574 L300,51.6133782" id="Fill-1" fill="#000203" sketch:type="MSShapeGroup"></path>
                <path d="M9.96677741,6.83363057 L16.7731376,6.83363057 L18.3959034,18.5042881 L18.4482685,18.5042881 L20.2358738,6.83363057 L28.1057624,6.83363057 L29.8867298,18.5042881 L29.9394637,18.5042881 L31.5668391,6.83363057 L38.372093,6.83363057 L34.2276882,25.3820564 L25.9785213,25.3820564 L24.199582,13.3660858 L24.1470325,13.3660858 L22.3640368,25.3820564 L14.1168981,25.3820564 L9.96677741,6.83363057" id="Fill-2" fill="#FFDA1A" sketch:type="MSShapeGroup"></path>
                <path d="M42.8571429,6.83363057 L57.5659557,6.83363057 L57.5659557,11.669439 L50.1978107,11.669439 L50.1978107,13.6417664 L57.0039738,13.6417664 L57.0039738,18.4757939 L50.1978107,18.4757939 L50.1978107,20.5567552 L57.807309,20.5567552 L57.807309,25.3820564 L42.8571429,25.3820564 L42.8571429,6.83363057" id="Fill-3" fill="#FFDA1A" sketch:type="MSShapeGroup"></path>
                <path d="M72.4250804,12.1010162 C72.3973673,10.94461 71.7399113,10.5584291 70.7659428,10.5584291 C69.5584189,10.5584291 69.0280419,11.0724468 69.0280419,11.6402342 C69.0280419,12.3029199 69.4752797,12.5870807 70.2640081,12.8188961 C71.7112866,13.2348106 74.3675475,13.7425967 76.2859481,14.5418434 C78.6840399,15.5152187 79.7342193,17.1886693 79.7342193,19.4204709 C79.7342193,23.9677556 75.9488332,25.8701729 70.5768741,25.8701729 C66.001301,25.8701729 61.7940199,24.4830196 61.7940199,19.6531765 L69.0030636,19.6531765 C69.0030636,20.170399 69.1102694,20.6813899 69.3985218,21.0691732 C69.6864095,21.4233059 70.1602665,21.6552993 70.8696845,21.6552993 C71.9734668,21.6552993 72.6879898,20.9618117 72.6879898,20.1422678 C72.6879898,19.4505606 72.1351871,19.0916207 71.4213933,18.8840195 L66.080976,17.3442812 C63.1643581,16.49625 62.1404333,14.7700978 62.1404333,12.385177 C62.1404333,8.53137995 65.3237894,6.3455141 70.8696845,6.3455141 C75.6027845,6.3455141 79.1599024,7.78999807 79.1599024,12.1010162 L72.4250804,12.1010162" id="Fill-4" fill="#FFDA1A" sketch:type="MSShapeGroup"></path>
                <path d="M88.9149777,11.8240196 L84.2192691,11.8240196 L84.2192691,6.83363057 L101.162791,6.83363057 L101.162791,11.8240196 L96.4659844,11.8240196 L96.4659844,25.3820564 L88.9149777,25.3820564 L88.9149777,11.8240196" id="Fill-5" fill="#FFDA1A" sketch:type="MSShapeGroup"></path>
                <path d="M106.146179,6.83363057 L120.850381,6.83363057 L120.850381,11.669439 L113.489834,11.669439 L113.489834,13.6417664 L120.290326,13.6417664 L120.290326,18.4757939 L113.489834,18.4757939 L113.489834,20.5567552 L121.096346,20.5567552 L121.096346,25.3820564 L106.146179,25.3820564 L106.146179,6.83363057" id="Fill-6" fill="#FFDA1A" sketch:type="MSShapeGroup"></path>
                <path d="M126.079734,6.83363057 L137.345688,6.83363057 C141.4354,6.83363057 143.835831,8.04480878 143.835831,11.5410374 C143.835831,13.6734661 142.909817,15.2864114 140.057168,15.9588727 L140.057168,16.0096278 C141.907184,16.1638522 142.909817,16.956345 143.277919,18.3741055 C143.699233,19.9647898 143.65114,22.5855366 144.518272,25.3820564 L137.133933,25.3820564 C136.688481,23.9965298 136.44948,21.6596557 136.182136,20.0702181 C136.028898,19.1414878 135.549799,18.7878046 134.337788,18.7878046 L133.465902,18.7878046 L133.465902,25.3820564 L126.079734,25.3820564 L126.079734,6.83363057 L126.079734,6.83363057 Z M134.098422,14.5667568 C135.549799,14.5667568 136.606376,14.0800416 136.606376,12.6962959 C136.606376,11.3357016 135.627698,11.0509385 134.147429,11.0509385 L133.465902,11.0509385 L133.465902,14.5667568 L134.098422,14.5667568 L134.098422,14.5667568 Z" id="Fill-7" fill="#FFDA1A" sketch:type="MSShapeGroup"></path>
                <path d="M149.501661,6.83363057 L158.631652,6.83363057 L162.699659,18.0644101 L162.75688,18.0644101 L162.75688,6.83363057 L168.936877,6.83363057 L168.936877,25.3820564 L159.807994,25.3820564 L155.729465,14.0800416 L155.675014,14.0800416 L155.675014,25.3820564 L149.501661,25.3820564 L149.501661,6.83363057" id="Fill-8" fill="#FFDA1A" sketch:type="MSShapeGroup"></path>
                <path d="M79.7342193,41.6131092 C79.7342193,46.0854769 76.4634804,48.3235304 70.7640289,48.3235304 C65.0605885,48.3235304 61.7940199,46.0854769 61.7940199,41.6131092 L61.7940199,29.2869881 L69.2734394,29.2869881 L69.2734394,41.3057753 C69.2734394,42.7697959 69.9794795,43.341373 70.7640289,43.341373 C71.5483971,43.341373 72.2557063,42.7697959 72.2557063,41.3057753 L72.2557063,29.2869881 L79.7342193,29.2869881 L79.7342193,41.6131092" id="Fill-9" fill="#FFDA1A" sketch:type="MSShapeGroup"></path>
                <path d="M85.7142857,29.2869881 L94.8473384,29.2869881 L98.918368,40.5133999 L98.9733719,40.5133999 L98.9733719,29.2869881 L105.149502,29.2869881 L105.149502,47.835414 L96.0162644,47.835414 L91.9472652,36.5292371 L91.8872777,36.5292371 L91.8872777,47.835414 L85.7142857,47.835414 L85.7142857,29.2869881" id="Fill-10" fill="#FFDA1A" sketch:type="MSShapeGroup"></path>
                <path d="M111.129568,29.2869881 L118.604651,29.2869881 L118.604651,47.835414 L111.129568,47.835414 L111.129568,29.2869881 Z" id="Fill-11" fill="#FFDA1A" sketch:type="MSShapeGroup"></path>
                <path d="M134.548253,28.7988717 C141.205182,28.7988717 144.518272,32.7781682 144.518272,38.5594203 C144.518272,44.3390697 141.205182,48.3235304 134.548253,48.3235304 C127.89577,48.3235304 124.584718,44.3390697 124.584718,38.5594203 C124.584718,32.7781682 127.89577,28.7988717 134.548253,28.7988717 M134.548253,43.4932066 C135.730415,43.4932066 136.6062,42.849104 136.6062,38.5594203 C136.6062,34.370884 135.78228,33.6259902 134.548253,33.6259902 C133.323488,33.6259902 132.493641,34.370884 132.493641,38.5594203 C132.493641,42.849104 133.381837,43.4932066 134.548253,43.4932066" id="Fill-12" fill="#FFDA1A" sketch:type="MSShapeGroup"></path>
                <path d="M149.501661,29.2869881 L158.631652,29.2869881 L162.699659,40.5133999 L162.75688,40.5133999 L162.75688,29.2869881 L168.936877,29.2869881 L168.936877,47.835414 L159.807994,47.835414 L155.729465,36.5292371 L155.675014,36.5292371 L155.675014,47.835414 L149.501661,47.835414 L149.501661,29.2869881" id="Fill-13" fill="#FFDA1A" sketch:type="MSShapeGroup"></path>
                <path d="M240.086326,6.83363057 L236.858065,6.83363057 L233.242728,32.9422514 L233.126679,32.9422514 L229.167418,6.83363057 L211.679794,6.83363057 L207.711902,32.9422514 L207.596588,32.9422514 L203.992452,6.83363057 L188.870432,6.83363057 L198.088815,48.3235304 L216.415042,48.3235304 L220.368978,21.4452653 L220.489801,21.4452653 L224.442452,48.3235304 L242.768128,48.3235304 L243.687708,44.1751297 C241.343403,41.753518 240.086326,38.5102976 240.086326,34.4129684 L240.086326,6.83363057" id="Fill-14" fill="#FFDA1A" sketch:type="MSShapeGroup"></path>
                <path d="M240.199336,6.83363057 L240.199336,34.5927875 C240.199336,38.7168315 241.463858,41.9811979 243.822045,44.4185987 L252.159468,6.83363057 L240.199336,6.83363057" id="Fill-15" fill="#FFFFFF" sketch:type="MSShapeGroup"></path>
                <path d="M263.607925,6.83363057 L263.607925,33.9571325 C263.607925,37.2586041 262.004769,38.5446509 260.228787,38.5446509 C258.449489,38.5446509 256.84707,37.2586041 256.84707,33.9571325 L256.84707,6.83363057 L253.229882,6.83363057 L244.684385,45.5324537 C248.150673,48.3507348 253.400865,49.7878798 260.228787,49.7878798 C273.151317,49.7878798 280.564784,44.738422 280.564784,34.6479707 L280.564784,6.83363057 L263.607925,6.83363057" id="Fill-16" fill="#FFDA1A" sketch:type="MSShapeGroup"></path>
                <path d="M177.906589,6.83363057 L175.415282,6.83363057 L184.383951,48.3235304 L186.877076,48.3235304 L177.906589,6.83363057" id="Fill-17" fill="#FFDA1A" sketch:type="MSShapeGroup"></path>
                <path d="M191.361818,48.3235304 L193.853821,48.3235304 L184.883484,6.83363057 L182.392027,6.83363057 L191.361818,48.3235304" id="Fill-18" fill="#FFDA1A" sketch:type="MSShapeGroup"></path>
                <path d="M285.828832,8.67056844 C285.803594,8.38628551 285.638252,8.24615376 285.320684,8.24615376 C285.078832,8.24615376 284.833203,8.36289977 284.833203,8.60826736 C284.833203,8.91209931 285.129706,8.94717792 285.392425,9.00564228 C285.858642,9.11453214 286.54485,9.23529758 286.54485,9.80002671 C286.54485,10.4972142 285.88388,10.7385623 285.227083,10.7385623 C284.528553,10.7385623 284.032925,10.489358 284.053791,9.78047769 L284.723307,9.78047769 C284.697671,10.0921658 284.892623,10.3024548 285.235628,10.3024548 C285.498546,10.3024548 285.845923,10.2284608 285.845923,9.92846559 C285.845923,9.59759388 285.409516,9.57420814 285.146797,9.51190706 C284.719133,9.41452737 284.134475,9.23529758 284.134475,8.73688894 C284.134475,8.09414643 284.778553,7.8098635 285.405342,7.8098635 C285.998348,7.8098635 286.459795,8.10583931 286.459795,8.67056844 L285.828832,8.67056844" id="Fill-19" fill="#FFDA1A" sketch:type="MSShapeGroup"></path>
                <path d="M288.255872,10.7385623 L287.783463,10.7385623 L287.083445,8.22354626 L287.076053,8.23172857 L287.076053,10.7385623 L286.54485,10.7385623 L286.54485,7.8098635 L287.475572,7.8098635 L288.028951,9.93935921 L288.036343,9.93935921 L288.637341,7.8098635 L289.534884,7.8098635 L289.534884,10.7385623 L289.003681,10.7385623 L289.003681,8.23172857 L288.996289,8.22354626 L288.255872,10.7385623" id="Fill-20" fill="#FFDA1A" sketch:type="MSShapeGroup"></path>
                <path d="M44.5099571,70.22211 L44.5481988,70.22211 C45.3184177,69.3909531 46.3372081,68.8244221 47.7879818,68.8244221 C48.8570805,68.8244221 50.2788946,69.5801028 50.456366,70.6182226 C51.617542,69.3909531 52.636518,68.8244221 54.0869205,68.8244221 C55.1560192,68.8244221 56.5780189,69.5801028 56.7554904,70.6182226 C56.9064154,71.3358897 56.7168773,72.1288494 56.5544426,72.8843465 L55.3282928,78.5867515 L52.4651726,78.5867515 L53.6913224,72.8843465 C53.891442,71.8645907 53.8530146,70.7127975 52.4404825,70.7127975 C51.5432861,70.7127975 50.5900266,71.5057572 50.255504,72.8843465 L49.0295398,78.5867515 L46.1660483,78.5867515 L47.3921981,72.8843465 C47.5925033,71.8645907 47.5538903,70.7127975 46.1411726,70.7127975 C45.2441618,70.7127975 44.2910879,71.5057572 43.9565653,72.8843465 L42.7302298,78.5867515 L39.8671096,78.5867515 L41.9052473,69.1075958 L44.7494322,69.1075958 L44.5099571,70.22211" id="Fill-21" fill="#000203" sketch:type="MSShapeGroup"></path>
                <path d="M61.7458318,78.5867515 C58.7176557,78.5867515 57.3321512,76.605089 57.9526202,73.7059438 C58.5732687,70.8066201 60.8071367,68.8244221 63.8354923,68.8244221 C66.8638479,68.8244221 68.2493525,70.8066201 67.6287039,73.7059438 C67.0082349,76.605089 64.774367,78.5867515 61.7458318,78.5867515 L61.7458318,78.5867515 Z M62.1387655,76.7517862 C63.8374678,76.7517862 64.45219,75.1738089 64.7664652,73.7059438 C65.0807404,72.2379001 65.14162,70.6595659 63.4427381,70.6595659 C61.7440359,70.6595659 61.1291341,72.2379001 60.8150385,73.7059438 C60.5007633,75.1738089 60.4398837,76.7517862 62.1387655,76.7517862 L62.1387655,76.7517862 Z" id="Fill-22" fill="#000203" sketch:type="MSShapeGroup"></path>
                <path d="M69.269103,69.3125386 L72.2534774,69.3125386 L72.9982476,75.5939861 L73.0358512,75.5939861 L76.5516045,69.3125386 L79.2358804,69.3125386 L73.8156694,78.5867515 L70.737286,78.5867515 L69.269103,69.3125386" id="Fill-23" fill="#000203" sketch:type="MSShapeGroup"></path>
                <path d="M83.2156176,68.9351192 L81.1461166,78.098635 L78.2392027,78.098635 L80.3087037,68.9351192 L83.2156176,68.9351192 L83.2156176,68.9351192 Z M84.2192691,64.9194904 L83.6877579,67.2741898 L80.5867105,67.2741898 L81.1184101,64.9194904 L84.2192691,64.9194904 L84.2192691,64.9194904 Z" id="Fill-24" fill="#000203" sketch:type="MSShapeGroup"></path>
                <path d="M87.79773,70.2031951 L87.8235028,70.25994 C88.5899254,69.3909531 89.5932388,68.8244221 91.021713,68.8244221 C91.9615996,68.8244221 93.6364696,69.5231743 93.6830801,70.9013963 C93.7092185,71.4873931 93.6191049,72.0915704 93.5512912,72.4120231 L92.2440043,78.5867515 L89.4245272,78.5867515 L90.6321956,72.8843465 C90.8290563,71.8645907 90.7912196,70.7127975 89.4002166,70.7127975 C88.5169937,70.7127975 87.5785693,71.5057572 87.2490058,72.8843465 L86.0417029,78.5867515 L83.2225914,78.5867515 L85.2292183,69.1075958 L88.0298684,69.1075958 L87.79773,70.2031951" id="Fill-25" fill="#000203" sketch:type="MSShapeGroup"></path>
                <path d="M103.781981,77.5243111 C103.304269,79.6809098 102.282574,82.040065 98.0677292,82.0031388 C95.9371588,82.0031388 93.7632788,81.5051726 94.2568587,79.0173134 L96.9827493,79.0173134 C96.8373262,79.8467193 97.5355066,80.1600544 98.3225463,80.1600544 C100.510987,80.1600544 100.858584,78.2427591 101.041716,76.8976409 L101.003261,76.8976409 C100.20782,77.80072 99.1090261,78.1696236 98.0148989,78.1696236 C95.4043761,78.1696236 94.5835474,75.8102892 95.081421,73.5613749 C95.6039363,71.2020404 97.5321464,68.8244221 100.219208,68.8244221 C101.505428,68.8244221 102.240944,69.2300728 102.493521,70.1702573 L102.53179,70.1702573 L102.768686,69.100831 L105.647841,69.100831 L103.781981,77.5243111 L103.781981,77.5243111 Z M99.3061594,76.3261807 C100.880052,76.3261807 101.511028,74.7779683 101.776299,73.579838 C102.07872,72.2160774 102.133417,70.6676858 100.559711,70.6676858 C98.9856311,70.6676858 98.3548419,72.2160774 98.0527948,73.579838 C97.7871502,74.7779683 97.7322665,76.3261807 99.3061594,76.3261807 L99.3061594,76.3261807 Z" id="Fill-26" fill="#000203" sketch:type="MSShapeGroup"></path>
                <path d="M115.273884,70.22211 L115.312125,70.22211 C116.082528,69.3909531 117.101317,68.8244221 118.552089,68.8244221 C119.621186,68.8244221 121.042997,69.5801028 121.220283,70.6182226 C122.381457,69.3909531 123.400431,68.8244221 124.851017,68.8244221 C125.919928,68.8244221 127.342111,69.5801028 127.519583,70.6182226 C127.670507,71.3358897 127.481155,72.1288494 127.318535,72.8843465 L126.092387,78.5867515 L123.229272,78.5867515 L124.45542,72.8843465 C124.655539,71.8645907 124.616926,70.7127975 123.204396,70.7127975 C122.307387,70.7127975 121.353943,71.5057572 121.019607,72.8843465 L119.793459,78.5867515 L116.930158,78.5867515 L118.15612,72.8843465 C118.356425,71.8645907 118.317997,70.7127975 116.905282,70.7127975 C116.008273,70.7127975 115.0552,71.5057572 114.720493,72.8843465 L113.494345,78.5867515 L110.631229,78.5867515 L112.669178,69.1075958 L115.513544,69.1075958 L115.273884,70.22211" id="Fill-27" fill="#000203" sketch:type="MSShapeGroup"></path>
                <path d="M132.510023,78.5867515 C129.481667,78.5867515 128.096162,76.605089 128.716811,73.7059438 C129.33728,70.8066201 131.571148,68.8244221 134.599504,68.8244221 C137.62786,68.8244221 139.013365,70.8066201 138.392895,73.7059438 C137.772247,76.605089 135.538379,78.5867515 132.510023,78.5867515 L132.510023,78.5867515 Z M132.902777,76.7517862 C134.601479,76.7517862 135.216381,75.1738089 135.530477,73.7059438 C135.844752,72.2379001 135.905632,70.6595659 134.20675,70.6595659 C132.508047,70.6595659 131.893146,72.2379001 131.57905,73.7059438 C131.264775,75.1738089 131.203716,76.7517862 132.902777,76.7517862 L132.902777,76.7517862 Z" id="Fill-28" fill="#000203" sketch:type="MSShapeGroup"></path>
                <path d="M143.611639,70.2031951 L143.637411,70.25994 C144.404009,69.3909531 145.406947,68.8244221 146.83559,68.8244221 C147.775285,68.8244221 149.450321,69.5231743 149.496931,70.9013963 C149.523435,71.4873931 149.432956,72.0915704 149.364961,72.4120231 L148.057869,78.5867515 L145.238603,78.5867515 L146.445894,72.8843465 C146.642752,71.8645907 146.604916,70.7127975 145.21411,70.7127975 C144.330895,70.7127975 143.392297,71.5057572 143.062737,72.8843465 L141.855629,78.5867515 L139.036545,78.5867515 L141.043152,69.1075958 L143.843775,69.1075958 L143.611639,70.2031951" id="Fill-29" fill="#000203" sketch:type="MSShapeGroup"></path>
                <path d="M153.457774,74.4397871 C153.198311,75.632461 153.123684,76.7517862 154.568428,76.7517862 C155.543876,76.7517862 156.107505,76.4030679 156.553627,75.5589339 L159.086764,75.5589339 C158.34797,77.8347049 156.364595,78.5867515 154.169381,78.5867515 C150.942519,78.5867515 150.034947,76.8067531 150.705316,73.7243255 C151.30781,70.9531389 153.421829,68.8244221 156.29234,68.8244221 C158.056212,68.8244221 159.391842,69.4115682 159.828477,71.0268445 C159.979374,71.5404634 159.991052,72.0908459 159.938137,72.677992 C159.88942,73.2469347 159.762243,73.8339023 159.630687,74.4397871 L153.457774,74.4397871 L153.457774,74.4397871 Z M157.121453,72.6044649 C157.340774,71.5954303 157.263044,70.6595659 155.893293,70.6595659 C154.598899,70.6595659 154.113729,71.5954303 153.856639,72.6044649 L157.121453,72.6044649 L157.121453,72.6044649 Z" id="Fill-30" fill="#000203" sketch:type="MSShapeGroup"></path>
                <path d="M169.121663,69.3125386 L171.92691,69.3125386 L164.305085,82.0035668 L161.461794,82.0035668 L163.454381,78.524033 L161.79417,69.3125386 L164.847168,69.3125386 L165.537717,75.667492 L165.575946,75.667492 L169.121663,69.3125386" id="Fill-31" fill="#000203" sketch:type="MSShapeGroup"></path>
                <path d="M183.526079,66.7740753 C181.636347,66.5516983 181.413054,67.4419279 181.101829,69.2772149 L182.764004,69.2772149 L182.375328,71.1317998 L180.71333,71.1317998 L179.151521,78.5867515 L176.41196,78.5867515 L177.973414,71.1317998 L176.603633,71.1317998 L176.992132,69.2772149 L178.361912,69.2772149 C178.844737,66.6254632 179.439475,64.9194904 182.416719,64.9194904 C182.909847,64.9194904 183.409725,64.9752199 183.887043,65.0495259 L183.526079,66.7740753" id="Fill-32" fill="#000203" sketch:type="MSShapeGroup"></path>
                <path d="M186.828857,78.5867515 C183.800839,78.5867515 182.414966,76.605089 183.035799,73.7059438 C183.656092,70.8066201 185.890155,68.8244221 188.918712,68.8244221 C191.946729,68.8244221 193.332423,70.8066201 192.71177,73.7059438 C192.090937,76.605089 189.857413,78.5867515 186.828857,78.5867515 L186.828857,78.5867515 Z M187.221614,76.7517862 C188.920328,76.7517862 189.535234,75.1738089 189.849152,73.7059438 C190.163609,72.2379001 190.224669,70.6595659 188.525955,70.6595659 C186.827241,70.6595659 186.212334,72.2379001 185.897878,73.7059438 C185.583421,75.1738089 185.522541,76.7517862 187.221614,76.7517862 L187.221614,76.7517862 Z" id="Fill-33" fill="#000203" sketch:type="MSShapeGroup"></path>
                <path d="M198.421298,68.9360258 L198.107794,70.5973234 L198.145721,70.5973234 C199.083617,69.1554257 200.394616,68.7902917 201.827243,68.8268584 L201.283375,71.2541031 L200.034591,71.2541031 C199.546586,71.2906698 198.855495,71.5461038 198.481458,71.9295211 C198.059592,72.4403892 197.88752,72.9519674 197.73357,73.5542521 L196.716271,78.098635 L193.853821,78.098635 L195.477202,70.7613408 C195.562771,70.3779235 195.677112,69.6114438 195.789772,68.9360258 L198.421298,68.9360258" id="Fill-34" fill="#000203" sketch:type="MSShapeGroup"></path>
                <path d="M208.775991,64.9194904 L211.577447,64.9194904 L210.472814,70.075103 L210.510234,70.075103 C211.19979,69.2957914 212.331853,68.7210017 213.303334,68.7210017 C216.217052,68.7210017 217.171821,71.1503763 216.635217,73.6542373 C216.1235,76.0464589 214.290256,78.5867515 211.544386,78.5867515 C210.330216,78.5867515 209.39125,78.0864482 209.009415,76.991877 L208.971995,76.991877 C208.877353,77.4371722 208.74838,77.8638908 208.615409,78.3086449 L205.813953,78.3086449 C205.982346,77.6967022 206.173264,77.066183 206.304236,76.4542404 L208.775991,64.9194904 L208.775991,64.9194904 Z M211.063913,76.7323469 C212.857012,76.7323469 213.434306,75.0821036 213.740392,73.6542373 C214.046296,72.22583 214.176178,70.5755867 212.383261,70.5755867 C210.869544,70.5755867 209.98017,72.3744421 209.706055,73.6542373 C209.432122,74.9333112 209.550924,76.7323469 211.063913,76.7323469 L211.063913,76.7323469 Z" id="Fill-35" fill="#000203" sketch:type="MSShapeGroup"></path>
                <path d="M220.733374,74.4397871 C220.474095,75.632461 220.39892,76.7517862 221.843843,76.7517862 C222.819289,76.7517862 223.383098,76.4030679 223.829767,75.5589339 L226.362168,75.5589339 C225.623011,77.8347049 223.639641,78.5867515 221.444797,78.5867515 C218.218125,78.5867515 217.310921,76.8067531 217.980924,73.7243255 C218.583416,70.9531389 220.697429,68.8244221 223.567751,68.8244221 C225.331253,68.8244221 226.66688,69.4115682 227.104244,71.0268445 C227.254958,71.5404634 227.266635,72.0908459 227.214269,72.677992 C227.165369,73.2469347 227.037097,73.8339023 226.905724,74.4397871 L220.733374,74.4397871 L220.733374,74.4397871 Z M224.396861,72.6044649 C224.616364,71.5954303 224.538453,70.6595659 223.168522,70.6595659 C221.874314,70.6595659 221.38951,71.5954303 221.132056,72.6044649 L224.396861,72.6044649 L224.396861,72.6044649 Z" id="Fill-36" fill="#000203" sketch:type="MSShapeGroup"></path>
                <path d="M230.611137,69.1703287 L231.020045,67.367817 L234.153564,66.3838398 L233.521804,69.1703287 L235.714286,69.1703287 L235.301603,70.9917936 L233.108932,70.9917936 L232.147327,75.2357378 C231.875225,76.4375894 231.99467,76.7654637 233.003639,76.7654637 C233.314236,76.7654637 233.633324,76.7289742 233.947695,76.7110837 L233.584074,78.3136115 C233.221585,78.4597467 231.640296,78.5867515 231.233274,78.5867515 C228.96286,78.5867515 228.729063,77.4759466 229.179674,75.4908102 L230.198454,70.9917936 L228.239203,70.9917936 L228.651885,69.1703287 L230.611137,69.1703287" id="Fill-37" fill="#000203" sketch:type="MSShapeGroup"></path>
                <path d="M237.588189,69.1703287 L237.997119,67.367817 L241.13023,66.3838398 L240.499003,69.1703287 L242.69103,69.1703287 L242.278138,70.9917936 L240.086111,70.9917936 L239.124457,75.2357378 C238.85253,76.4375894 238.971227,76.7654637 239.981001,76.7654637 C240.290859,76.7654637 240.609774,76.7289742 240.92435,76.7110837 L240.561277,78.3136115 C240.198203,78.4597467 238.616834,78.5867515 238.209792,78.5867515 C235.939829,78.5867515 235.70602,77.4759466 236.156088,75.4908102 L237.175486,70.9917936 L235.215947,70.9917936 L235.628462,69.1703287 L237.588189,69.1703287" id="Fill-38" fill="#000203" sketch:type="MSShapeGroup"></path>
                <path d="M245.650298,74.4397871 C245.39102,75.632461 245.315846,76.7517862 246.760941,76.7517862 C247.736198,76.7517862 248.300004,76.4030679 248.746488,75.5589339 L251.279053,75.5589339 C250.539902,77.8347049 248.556363,78.5867515 246.361716,78.5867515 C243.135066,78.5867515 242.227867,76.8067531 242.897866,73.7243255 C243.500354,70.9531389 245.614171,68.8244221 248.484655,68.8244221 C250.248146,68.8244221 251.583582,69.4115682 252.020942,71.0268445 C252.17202,71.5404634 252.183698,72.0908459 252.130966,72.677992 C252.082249,73.2469347 251.954161,73.8339023 251.822424,74.4397871 L245.650298,74.4397871 L245.650298,74.4397871 Z M249.313943,72.6044649 C249.533262,71.5954303 249.455351,70.6595659 248.08543,70.6595659 C246.79123,70.6595659 246.30643,71.5954303 246.048976,72.6044649 L249.313943,72.6044649 L249.313943,72.6044649 Z" id="Fill-39" fill="#000203" sketch:type="MSShapeGroup"></path>
                <path d="M256.727507,68.9360258 L256.412695,70.5973234 L256.451182,70.5973234 C257.388518,69.1554257 258.700264,68.7902917 260.13289,68.8268584 L259.589583,71.2541031 L258.340986,71.2541031 C257.852047,71.2906698 257.161143,71.5461038 256.787106,71.9295211 C256.36524,72.4403892 256.193168,72.9519674 256.039218,73.5542521 L255.021358,78.098635 L252.159468,78.098635 L253.78285,70.7613408 C253.86898,70.3779235 253.98276,69.6114438 254.09542,68.9360258 L256.727507,68.9360258" id="Fill-40" fill="#000203" sketch:type="MSShapeGroup"></path>
            </g>
        </g>
    </g>
</svg>