<?xml version="1.0" encoding="UTF-8" standalone="no"?>
<svg width="714px" height="324px" viewBox="0 0 714 324" version="1.1" xmlns="http://www.w3.org/2000/svg" xmlns:xlink="http://www.w3.org/1999/xlink" xmlns:sketch="http://www.bohemiancoding.com/sketch/ns">
    <!-- Generator: Sketch 3.3.3 (12081) - http://www.bohemiancoding.com/sketch -->
    <title>Imported Layers</title>
    <desc>Created with Sketch.</desc>
    <defs></defs>
    <g id="Page-1" stroke="none" stroke-width="1" fill="none" fill-rule="evenodd" sketch:type="MSPage">
        <g id="Artboard-1" sketch:type="MSArtboardGroup" transform="translate(-14.000000, -7.000000)">
            <g id="Imported-Layers" sketch:type="MSLayerGroup" transform="translate(14.000000, 7.000000)">
                <path d="M713.717,298.728 C713.717,312.646 702.435,323.93 688.518,323.93 L26.118,323.93 C12.2,323.93 0.918,312.646 0.918,298.728 L0.918,26.064 C0.918,12.146 12.2,0.864 26.118,0.864 L688.518,0.864 C702.435,0.864 713.717,12.146 713.717,26.064 L713.717,298.728" id="Fill-1" fill="#000203" sketch:type="MSShapeGroup"></path>
                <path d="M397.957,43.141 L380.375,43.141 L360.687,189.349 L360.055,189.349 L338.494,43.141 L243.257,43.141 L221.648,189.349 L221.02,189.349 L201.392,43.141 L119.038,43.141 L169.241,275.484 L269.045,275.484 L290.577,124.966 L291.236,124.966 L312.762,275.484 L412.563,275.484 L417.57,252.253 C404.803,238.693 397.957,220.531 397.957,197.585 L397.957,43.141" id="Fill-2" fill="#FFDA1A" sketch:type="MSShapeGroup"></path>
                <path d="M397.957,43.141 L397.957,197.585 C397.957,220.531 404.803,238.693 417.57,252.253 L462.707,43.141 L397.957,43.141" id="Fill-3" fill="#FFFFFF" sketch:type="MSShapeGroup"></path>
                <path d="M526.664,43.141 L526.664,193.749 C526.664,212.081 517.963,219.222 508.324,219.222 C498.666,219.222 489.971,212.081 489.971,193.749 L489.971,43.141 L470.338,43.141 L423.957,258.023 C442.771,273.671 471.266,281.652 508.324,281.652 C578.459,281.652 618.697,253.615 618.697,197.585 L618.697,43.141 L526.664,43.141" id="Fill-4" fill="#FFDA1A" sketch:type="MSShapeGroup"></path>
                <path d="M58.655,43.141 L44.952,43.141 L94.28,275.484 L107.991,275.484 L58.655,43.141" id="Fill-5" fill="#FFDA1A" sketch:type="MSShapeGroup"></path>
                <path d="M131.763,275.484 L145.466,275.484 L96.14,43.141 L82.439,43.141 L131.763,275.484" id="Fill-6" fill="#FFDA1A" sketch:type="MSShapeGroup"></path>
                <path d="M646.475,54.249 C646.346,52.693 645.516,51.926 643.916,51.926 C642.701,51.926 641.465,52.566 641.465,53.909 C641.465,55.571 642.957,55.763 644.279,56.082 C646.623,56.679 650.076,57.34 650.076,60.431 C650.076,64.247 646.752,65.569 643.447,65.569 C639.93,65.569 637.435,64.205 637.543,60.325 L640.91,60.325 C640.783,62.03 641.764,63.181 643.49,63.181 C644.81,63.181 646.559,62.776 646.559,61.134 C646.559,59.323 644.363,59.195 643.043,58.854 C640.889,58.321 637.947,57.34 637.947,54.612 C637.947,51.094 641.188,49.539 644.342,49.539 C647.326,49.539 649.65,51.159 649.65,54.249 L646.475,54.249" id="Fill-7" fill="#FFDA1A" sketch:type="MSShapeGroup"></path>
                <path d="M662.244,65.249 L659.494,65.249 L655.422,52.033 L655.381,52.075 L655.381,65.249 L652.289,65.249 L652.289,49.858 L657.703,49.858 L660.922,61.049 L660.965,61.049 L664.461,49.858 L669.684,49.858 L669.684,65.249 L666.592,65.249 L666.592,52.075 L666.551,52.033 L662.244,65.249" id="Fill-8" fill="#FFDA1A" sketch:type="MSShapeGroup"></path>
            </g>
        </g>
    </g>
</svg>