<?xml version="1.0" encoding="UTF-8" standalone="no"?>
<svg width="200px" height="100px" viewBox="0 0 200 100" version="1.1" xmlns="http://www.w3.org/2000/svg" xmlns:xlink="http://www.w3.org/1999/xlink" xmlns:sketch="http://www.bohemiancoding.com/sketch/ns">
    <!-- Generator: Sketch 3.3.3 (12081) - http://www.bohemiancoding.com/sketch -->
    <title>icons-sprite</title>
    <desc>Created with Sketch.</desc>
    <defs></defs>
    <g id="UI" stroke="none" stroke-width="1" fill="none" fill-rule="evenodd" sketch:type="MSPage">
        <g id="icons-sprite" sketch:type="MSArtboardGroup">
            <path d="M15,48 L16.75,46.25 L9.75,39.25 L25,39.25 L25,36.75 L9.75,36.75 L16.75,29.75 L15,28 L5,38 L15,48 Z" id="back-arrow" fill="#FFE01A" sketch:type="MSShapeGroup"></path>
            <g id="arr-next" sketch:type="MSLayerGroup" transform="translate(100.000000, 5.000000)" fill="#C7C7CC">
                <path d="M10,0 L8.25,1.75 L15.25,8.75 L0,8.75 L0,11.25 L15.25,11.25 L8.25,18.25 L10,20 L20,10 L10,0 Z" sketch:type="MSShapeGroup"></path>
            </g>
            <g id="icon-less" sketch:type="MSLayerGroup" transform="translate(85.000000, 14.000000)" fill="#0A82A9">
                <rect id="Rectangle-64" sketch:type="MSShapeGroup" x="0" y="0" width="12" height="2"></rect>
            </g>
            <g id="close-x" sketch:type="MSLayerGroup" transform="translate(125.000000, 5.000000)" fill="#1281A9">
                <path d="M20,2 L18,0 L10,8 L2,0 L0,2 L8,10 L0,18 L2,20 L10,12 L18,20 L20,18 L12,10 L20,2 Z" id="Shape-Copy" sketch:type="MSShapeGroup"></path>
            </g>
            <g id="chekbox2" sketch:type="MSLayerGroup" transform="translate(28.000000, 6.000000)" fill="#1281A9">
                <path d="M16,0 L2,0 C0.9,0 0,0.9 0,2 L0,16 C0,17.1 0.9,18 2,18 L16,18 C17.1,18 18,17.1 18,16 L18,2 C18,0.9 17.1,0 16,0 L16,0 Z M7,14 L2,9.19230769 L3.4,7.84615385 L7,11.3076923 L14.6,4 L16,5.34615385 L7,14 L7,14 Z" id="Shape" sketch:type="MSShapeGroup"></path>
            </g>
            <g id="checkbox" sketch:type="MSLayerGroup" transform="translate(5.000000, 6.000000)" fill="#1281A9">
                <path d="M16,2 L16,16 L2,16 L2,2 L16,2 L16,2 Z M16,0 L2,0 C0.9,0 0,0.9 0,2 L0,16 C0,17.1 0.9,18 2,18 L16,18 C17.1,18 18,17.1 18,16 L18,2 C18,0.9 17.1,0 16,0 L16,0 L16,0 Z" id="Shape" sketch:type="MSShapeGroup"></path>
            </g>
            <g id="secure-icon01" sketch:type="MSLayerGroup" transform="translate(158.000000, 3.000000)">
                <circle id="Oval-10" stroke="#906B10" sketch:type="MSShapeGroup" cx="12" cy="12" r="12"></circle>
                <path d="M16.1175743,18.6726055 L7.87132844,18.6726055 C7.21738349,18.6726055 6.68233761,18.1375596 6.68233761,17.4836147 L6.68233761,10.9888514 C6.68233761,10.3348073 7.21738349,9.79986055 7.87132844,9.79986055 L16.1175743,9.79986055 C16.7715193,9.79986055 17.3065651,10.3348073 17.3065651,10.9888514 L17.3065651,17.4836147 C17.3065651,18.1375596 16.7715193,18.6726055 16.1175743,18.6726055" id="Fill-1" fill="#906B10" sketch:type="MSShapeGroup"></path>
                <path d="M15.6130459,9.25797798 C15.6130459,11.3549615 16.3452661,14.0673468 11.9944514,14.0673468 C7.6436367,14.0673468 8.3757578,11.3549615 8.3757578,9.25797798 C8.3757578,7.16109358 9.99595596,5.46113394 11.9944514,5.46113394 C13.9929468,5.46113394 15.6130459,7.16109358 15.6130459,9.25797798 L15.6130459,9.25797798 Z M11.990389,6.70263853 C10.6327596,6.70263853 9.53224954,7.88608073 9.53224954,9.3459633 C9.53224954,10.8058459 9.2050789,12.9425615 11.990389,12.9425615 C14.7756991,12.9425615 14.4485284,10.8058459 14.4485284,9.3459633 C14.4485284,7.88608073 13.3479193,6.70263853 11.990389,6.70263853 L11.990389,6.70263853 Z" id="Fill-2" fill="#906B10" sketch:type="MSShapeGroup"></path>
                <path d="M12.7036844,13.480778 C12.7036844,13.8951413 12.3676954,14.2311303 11.9533321,14.2311303 C11.5388697,14.2311303 11.2029798,13.8951413 11.2029798,13.480778 C11.2029798,13.0664147 11.5388697,12.7304257 11.9533321,12.7304257 C12.3676954,12.7304257 12.7036844,13.0664147 12.7036844,13.480778" id="Fill-3" fill="#FFFFFF" sketch:type="MSShapeGroup"></path>
                <path d="M11.9944514,15.9978716 L11.9944514,15.9978716 C11.8308661,15.9978716 11.6054532,15.9097872 11.6054532,15.7462018 L11.6969064,14.0333615 C11.6969064,13.8697761 11.8308661,13.7359156 11.9944514,13.7359156 C12.1580367,13.7359156 12.2918972,13.8697761 12.2918972,14.0333615 L12.3834495,15.7462018 C12.3834495,15.9097872 12.1580367,15.9978716 11.9944514,15.9978716" id="Fill-4" fill="#FFFFFF" sketch:type="MSShapeGroup"></path>
            </g>
            <g id="icon-more-+" sketch:type="MSLayerGroup" transform="translate(70.000000, 10.000000)" fill="#0A82A9">
                <rect id="Rectangle-62" sketch:type="MSShapeGroup" x="0" y="4" width="10" height="2"></rect>
                <rect id="Rectangle-63" sketch:type="MSShapeGroup" x="4" y="0" width="2" height="10"></rect>
            </g>
            <g id="arrow-down" sketch:type="MSLayerGroup" transform="translate(52.000000, 11.000000)" fill="#1281A9">
                <path d="M2.13818117,-0.618859452 L3.58071662,-2 L9.83170358,3.98494238 L3.58071662,9.96988475 L2.13818117,8.5887442 L6.94663268,3.98494238 L2.13818117,-0.618859452 Z" id="Arrow-Copy" sketch:type="MSShapeGroup" transform="translate(5.984942, 3.984942) rotate(90.000000) translate(-5.984942, -3.984942) "></path>
            </g>
            <g id="wu-logo" sketch:type="MSLayerGroup" transform="translate(5.000000, 65.000000)">
                <g id="wu-logo-copy" sketch:type="MSShapeGroup">
                    <g transform="translate(0.186507, 0.546389)">
                        <path d="M164.626985,28.3231829 C164.626985,29.6931054 163.491542,30.8035714 162.090931,30.8035714 L2.53595395,30.8035714 C1.13534256,30.8035714 0,29.6931054 0,28.3231829 L0,2.48038855 C0,1.11046602 1.13534256,0 2.53595395,0 L162.090931,0 C163.491542,0 164.626985,1.11046602 164.626985,2.48038855 L164.626985,28.3231829" id="Fill-1" fill="#000203"></path>
                        <path d="M5.46933507,3.75 L9.20437027,3.75 L10.0948737,10.1543505 L10.1236094,10.1543505 L11.1045697,3.75 L15.4232231,3.75 L16.4005408,10.1543505 L16.4294789,10.1543505 L17.3225119,3.75 L21.05694,3.75 L18.7826704,13.9285714 L14.2558855,13.9285714 L13.2796808,7.33472803 L13.2508439,7.33472803 L12.2724132,13.9285714 L7.74674126,13.9285714 L5.46933507,3.75" id="Fill-2" fill="#FFDA1A"></path>
                        <path d="M23.5181408,3.75 L31.5896992,3.75 L31.5896992,6.40368188 L27.5463808,6.40368188 L27.5463808,7.48600959 L31.2813079,7.48600959 L31.2813079,10.1387142 L27.5463808,10.1387142 L27.5463808,11.2806555 L31.7221434,11.2806555 L31.7221434,13.9285714 L23.5181408,13.9285714 L23.5181408,3.75" id="Fill-3" fill="#FFDA1A"></path>
                        <path d="M39.7437422,6.64051274 C39.7285344,6.0059272 39.3677511,5.79400786 38.8332795,5.79400786 C38.1706427,5.79400786 37.8795948,6.07607845 37.8795948,6.38765556 C37.8795948,6.75130874 38.1250195,6.90724385 38.5578395,7.03445407 C39.3520431,7.26268992 40.8096839,7.54134088 41.8624189,7.9799328 C43.1783877,8.51407894 43.7546805,9.43239604 43.7546805,10.657112 C43.7546805,13.1524645 41.6774249,14.1964286 38.7295267,14.1964286 C36.2186507,14.1964286 33.9098774,13.435219 33.9098774,10.7848107 L37.8658878,10.7848107 C37.8658878,11.0686399 37.9247177,11.3490496 38.0828981,11.5618482 C38.2408784,11.7561809 38.5009106,11.8834888 38.8902084,11.8834888 C39.4959162,11.8834888 39.8880155,11.5029329 39.8880155,11.0532028 C39.8880155,10.6736239 39.5846613,10.4766532 39.1929623,10.3627307 L36.2623729,9.51778908 C34.6618596,9.05242634 34.099974,8.10518895 34.099974,6.79644785 C34.099974,4.68165121 35.8468618,3.48214286 38.8902084,3.48214286 C41.4875284,3.48214286 43.4395204,4.274813 43.4395204,6.64051274 L39.7437422,6.64051274" id="Fill-4" fill="#FFDA1A"></path>
                        <path d="M48.7926824,6.48850901 L46.2158813,6.48850901 L46.2158813,3.75 L55.5137509,3.75 L55.5137509,6.48850901 L52.9363474,6.48850901 L52.9363474,13.9285714 L48.7926824,13.9285714 L48.7926824,6.48850901" id="Fill-5" fill="#FFDA1A"></path>
                        <path d="M58.2484184,3.75 L66.3174466,3.75 L66.3174466,6.40368188 L62.2782975,6.40368188 L62.2782975,7.48600959 L66.0101123,7.48600959 L66.0101123,10.1387142 L62.2782975,10.1387142 L62.2782975,11.2806555 L66.452421,11.2806555 L66.452421,13.9285714 L58.2484184,13.9285714 L58.2484184,3.75" id="Fill-6" fill="#FFDA1A"></path>
                        <path d="M69.1870886,3.75 L75.3693552,3.75 C77.6136116,3.75 78.9308642,4.41464206 78.9308642,6.33322063 C78.9308642,7.50340502 78.4227079,8.38851943 76.8572977,8.75753699 L76.8572977,8.78538921 C77.8725064,8.87002089 78.4227079,9.30490652 78.624706,10.082912 C78.8559051,10.9558105 78.8295139,12.3939627 79.3053584,13.9285714 L75.2531536,13.9285714 C75.0087087,13.1682545 74.8775555,11.8858794 74.7308484,11.013665 C74.6467578,10.5040181 74.3838492,10.3099321 73.7187505,10.3099321 L73.2402969,10.3099321 L73.2402969,13.9285714 L69.1870886,13.9285714 L69.1870886,3.75 L69.1870886,3.75 Z M73.5873965,7.99360419 C74.3838492,7.99360419 74.963653,7.726516 74.963653,6.96717638 C74.963653,6.22054128 74.4265969,6.06427563 73.6142895,6.06427563 L73.2402969,6.06427563 L73.2402969,7.99360419 L73.5873965,7.99360419 L73.5873965,7.99360419 Z" id="Fill-7" fill="#FFDA1A"></path>
                        <path d="M82.040026,3.75 L87.0501687,3.75 L89.2825148,9.91296458 L89.3139149,9.91296458 L89.3139149,3.75 L92.7052294,3.75 L92.7052294,13.9285714 L87.6956944,13.9285714 L85.4575747,7.726516 L85.427694,7.726516 L85.427694,13.9285714 L82.040026,13.9285714 L82.040026,3.75" id="Fill-8" fill="#FFDA1A"></path>
                        <path d="M43.7546805,22.8354691 C43.7546805,25.2897105 41.9598409,26.5178571 38.8322292,26.5178571 C35.7024286,26.5178571 33.9098774,25.2897105 33.9098774,22.8354691 L33.9098774,16.0714286 L38.0142584,16.0714286 L38.0142584,22.6668176 C38.0142584,23.4702086 38.4017025,23.7838653 38.8322292,23.7838653 C39.2626564,23.7838653 39.6507971,23.4702086 39.6507971,22.6668176 L39.6507971,16.0714286 L43.7546805,16.0714286 L43.7546805,22.8354691" id="Fill-9" fill="#FFDA1A"></path>
                        <path d="M47.0362816,16.0714286 L52.0481047,16.0714286 L54.2821091,22.2319963 L54.3122929,22.2319963 L54.3122929,16.0714286 L57.7014849,16.0714286 L57.7014849,26.25 L52.6895605,26.25 L50.4566703,20.0456606 L50.4237518,20.0456606 L50.4237518,26.25 L47.0362816,26.25 L47.0362816,16.0714286" id="Fill-10" fill="#FFDA1A"></path>
                        <path d="M60.983086,16.0714286 L65.0850873,16.0714286 L65.0850873,26.25 L60.983086,26.25 L60.983086,16.0714286 Z" id="Fill-11" fill="#FFDA1A"></path>
                        <path d="M73.8342445,15.8035714 C77.4872783,15.8035714 79.3053584,17.9872367 79.3053584,21.1597371 C79.3053584,24.331358 77.4872783,26.5178571 73.8342445,26.5178571 C70.1836503,26.5178571 68.3666883,24.331358 68.3666883,21.1597371 C68.3666883,17.9872367 70.1836503,15.8035714 73.8342445,15.8035714 M73.8342445,23.867185 C74.4829635,23.867185 74.9635563,23.5137294 74.9635563,21.1597371 C74.9635563,18.8612501 74.511425,18.4524846 73.8342445,18.4524846 C73.1621465,18.4524846 72.7067625,18.8612501 72.7067625,21.1597371 C72.7067625,23.5137294 73.1941657,23.867185 73.8342445,23.867185" id="Fill-12" fill="#FFDA1A"></path>
                        <path d="M82.040026,16.0714286 L87.0501687,16.0714286 L89.2825148,22.2319963 L89.3139149,22.2319963 L89.3139149,16.0714286 L92.7052294,16.0714286 L92.7052294,26.25 L87.6956944,26.25 L85.4575747,20.0456606 L85.427694,20.0456606 L85.427694,26.25 L82.040026,26.25 L82.040026,16.0714286" id="Fill-13" fill="#FFDA1A"></path>
                        <path d="M131.74896,3.75 L129.977431,3.75 L127.993491,18.0772785 L127.929808,18.0772785 L125.757137,3.75 L116.160688,3.75 L113.983281,18.0772785 L113.920001,18.0772785 L111.942208,3.75 L103.643899,3.75 L108.702548,26.5178571 L118.759187,26.5178571 L120.928935,11.7682313 L120.995238,11.7682313 L123.164281,26.5178571 L133.220617,26.5178571 L133.725242,24.2413948 C132.43879,22.9125193 131.74896,21.1327807 131.74896,18.8843442 L131.74896,3.75" id="Fill-14" fill="#FFDA1A"></path>
                        <path d="M131.810975,3.75 L131.810975,18.9830211 C131.810975,21.2461175 132.50489,23.0374602 133.798961,24.375 L138.374177,3.75 L131.810975,3.75" id="Fill-15" fill="#FFFFFF"></path>
                        <path d="M144.656593,3.75 L144.656593,18.6342012 C144.656593,20.4459056 143.776851,21.1516323 142.802269,21.1516323 C141.825867,21.1516323 140.94653,20.4459056 140.94653,18.6342012 L140.94653,3.75 L138.961574,3.75 L134.272176,24.9862353 C136.174324,26.5327857 139.055402,27.3214286 142.802269,27.3214286 C149.893593,27.3214286 153.961782,24.5505052 153.961782,19.0133032 L153.961782,3.75 L144.656593,3.75" id="Fill-16" fill="#FFDA1A"></path>
                        <path d="M97.6274184,3.75 L96.2602972,3.75 L101.181914,26.5178571 L102.550032,26.5178571 L97.6274184,3.75" id="Fill-17" fill="#FFDA1A"></path>
                        <path d="M105.011064,26.5178571 L106.378567,26.5178571 L101.456035,3.75 L100.088832,3.75 L105.011064,26.5178571" id="Fill-18" fill="#FFDA1A"></path>
                        <path d="M156.850463,4.75803182 C156.836614,4.60202968 156.745881,4.52513145 156.571614,4.52513145 C156.438896,4.52513145 156.304106,4.5891966 156.304106,4.72384369 C156.304106,4.89057348 156.466813,4.9098231 156.610982,4.9419058 C156.866821,5.00165983 157.243383,5.06793067 157.243383,5.37782952 C157.243383,5.76041574 156.880671,5.89285714 156.52025,5.89285714 C156.136927,5.89285714 155.864947,5.75610463 155.876398,5.36710186 L156.243799,5.36710186 C156.229731,5.53814277 156.336712,5.65354024 156.524939,5.65354024 C156.669217,5.65354024 156.859842,5.61293557 156.859842,5.4483112 C156.859842,5.26674316 156.620361,5.25391008 156.476192,5.21972195 C156.241509,5.1662842 155.920673,5.06793067 155.920673,4.79442563 C155.920673,4.44171642 156.274116,4.28571429 156.61807,4.28571429 C156.943486,4.28571429 157.196708,4.44813296 157.196708,4.75803182 L156.850463,4.75803182" id="Fill-19" fill="#FFDA1A"></path>
                        <path d="M158.182318,5.89285714 L157.92308,5.89285714 L157.53894,4.51272543 L157.534884,4.51721553 L157.534884,5.89285714 L157.243383,5.89285714 L157.243383,4.28571429 L157.754123,4.28571429 L158.057793,5.45428915 L158.061849,5.45428915 L158.391651,4.28571429 L158.884184,4.28571429 L158.884184,5.89285714 L158.592683,5.89285714 L158.592683,4.51721553 L158.588626,4.51272543 L158.182318,5.89285714" id="Fill-20" fill="#FFDA1A"></path>
                    </g>
                </g>
            </g>
            <g id="icon-cash-location" sketch:type="MSLayerGroup" transform="translate(30.000000, 30.000000)" fill="#FFFFFF">
                <path d="M22.881,3 L5.119,3 L0.319,7 L27.681,7 L22.881,3 L22.881,3 Z M21,2 L22,2 L22,0.5 C22,0.224 21.7765,0 21.5,0 L6.5,0 C6.2235,0 6,0.224 6,0.5 L6,2 L21,2 L21,2 Z M0,8 L0,9.5 C0,9.7765 0.2235,10 0.5,10 L2,10 C2.5,10 3,11 4,11 C5,11 5.5,10 6,10 L7,10 C7.5,10 8,11 9,11 C10,11 10.5,10 11,10 L12,10 C12.5,10 13,11 14,11 C15,11 15.5,10 16,10 L17,10 C17.5,10 18,11 19,11 C20,11 20.5,10 21,10 L22,10 C22.5,10 23,11 24,11 C25,11 25.5,10 26,10 L27.5,10 C27.7765,10 28,9.7765 28,9.5 L28,8 L0,8 L0,8 Z M25,19.5 L21.8,17.1 L21.795,17.107 C21.7115,17.0445 21.6125,17 21.5,17 L6.5,17 C6.3875,17 6.2885,17.0445 6.205,17.107 L6.2,17.1 L3,19.5 L3,12 L2,12 L2,23 C2,23.552 2.448,24 3,24 L25,24 C25.5525,24 26,23.552 26,23 L26,12 L25,12 L25,19.5 L25,19.5 Z" id="cash-location" sketch:type="MSShapeGroup"></path>
            </g>
            <g id="icon-bank-white" sketch:type="MSLayerGroup" transform="translate(63.000000, 27.000000)" fill="#FFFFFF">
                <path d="M0,24.3785714 L0,25.3785714 C0,25.9310714 0.448,26.3785714 1,26.3785714 L27,26.3785714 C27.552,26.3785714 28,25.9310714 28,25.3785714 L28,24.3785714 L0,24.3785714 L0,24.3785714 Z M27,22.3785714 C27,21.8265714 26.552,21.3785714 26,21.3785714 L25,21.3785714 L25,10.3785714 L26.5,10.3785714 C26.7765,10.3785714 27,10.1550714 27,9.87857143 L27,8.87857143 C27,8.70157143 26.903,8.55407143 26.7645,8.46507143 L26.7695,8.45757143 L14.2695,0.457571429 L14.2645,0.465071429 C14.187,0.415071429 14.0995,0.378571429 14,0.378571429 C13.9005,0.378571429 13.8135,0.415071429 13.7355,0.465071429 L13.7305,0.457571429 L1.2305,8.45757143 L1.2355,8.46507143 C1.097,8.55407143 1,8.70157143 1,8.87857143 L1,9.87857143 C1,10.1550714 1.2235,10.3785714 1.5,10.3785714 L3,10.3785714 L3,21.3785714 L2,21.3785714 C1.4475,21.3785714 1,21.8265714 1,22.3785714 L1,23.3785714 L27,23.3785714 L27,22.3785714 L27,22.3785714 Z M7,10.3785714 L9,10.3785714 L9,21.3785714 L7,21.3785714 L7,10.3785714 Z M13,10.3785714 L15,10.3785714 L15,21.3785714 L13,21.3785714 L13,10.3785714 Z M19,10.3785714 L21,10.3785714 L21,21.3785714 L19,21.3785714 L19,10.3785714 Z" id="bank-copy-3" sketch:type="MSShapeGroup"></path>
            </g>
        </g>
    </g>
</svg>